<svg width="13" height="16" viewBox="0 0 13 16" fill="none" xmlns="http://www.w3.org/2000/svg">
<path d="M10.8523 15.233C11.2619 15.2356 11.6575 15.084 11.9605 14.8084C12.2636 14.5326 12.4518 14.1528 12.4877 13.7446L12.4877 13.7446L12.4879 13.7423C12.509 13.4483 12.5134 13.1534 12.5012 12.8589C12.4642 11.201 11.8537 9.78426 10.6578 8.63201C10.3505 8.33497 10.0092 8.16613 9.64495 8.13032C9.28163 8.09461 8.91007 8.19263 8.54323 8.40307L8.54315 8.40312C7.25265 9.14464 5.95879 9.14465 4.66939 8.40326C4.3044 8.19205 3.9329 8.09601 3.5692 8.1327C3.20482 8.16945 2.86241 8.33804 2.55417 8.63128C1.76547 9.3795 1.19851 10.3308 0.915726 11.3806C0.718734 12.0886 0.704281 12.8089 0.710003 13.5159L0.852499 13.5148L0.710003 13.516C0.713916 14.012 0.890409 14.4427 1.19775 14.7498C1.5052 15.0571 1.93551 15.2325 2.43186 15.2325H6.61005C7.12357 15.2325 7.6374 15.2328 8.15143 15.2331C9.05128 15.2336 9.95175 15.234 10.8523 15.233ZM10.8523 15.233C10.8521 15.233 10.8519 15.233 10.8518 15.233L10.8527 15.0905L10.8529 15.233C10.8527 15.233 10.8525 15.233 10.8523 15.233ZM11.6902 13.5838L11.6902 13.5838C11.6771 14.079 11.3208 14.4277 10.8267 14.4277H10.8185H10.8102H10.802H10.7938H10.7855H10.7773H10.769H10.7608H10.7526H10.7443H10.7361H10.7279H10.7196H10.7114H10.7032H10.6949H10.6867H10.6784H10.6702H10.662H10.6537H10.6455H10.6373H10.629H10.6208H10.6126H10.6043H10.5961H10.5878H10.5796H10.5714H10.5631H10.5549H10.5467H10.5384H10.5302H10.5219H10.5137H10.5055H10.4972H10.489H10.4808H10.4725H10.4643H10.4561H10.4478H10.4396H10.4313H10.4231H10.4149H10.4066H10.3984H10.3902H10.3819H10.3737H10.3655H10.3572H10.349H10.3407H10.3325H10.3243H10.316H10.3078H10.2996H10.2913H10.2831H10.2749H10.2666H10.2584H10.2501H10.2419H10.2337H10.2254H10.2172H10.209H10.2007H10.1925H10.1843H10.176H10.1678H10.1595H10.1513H10.1431H10.1348H10.1266H10.1184H10.1101H10.1019H10.0937H10.0854H10.0772H10.0689H10.0607H10.0525H10.0442H10.036H10.0278H10.0195H10.0113H10.0031H9.99482H9.98658H9.97835H9.97011H9.96187H9.95364H9.9454H9.93717H9.92893H9.92069H9.91246H9.90422H9.89598H9.88775H9.87951H9.87128H9.86304H9.8548H9.84657H9.83833H9.8301H9.82186H9.81362H9.80539H9.79715H9.78891H9.78068H9.77244H9.76421H9.75597H9.74773H9.7395H9.73126H9.72303H9.71479H9.70655H9.69832H9.69008H9.68184H9.67361H9.66537H9.65714H9.6489H9.64066H9.63243H9.62419H9.61596H9.60772H9.59948H9.59125H9.58301H9.57477H9.56654H9.5583H9.55007H9.54183H9.5336H9.52536H9.51712H9.50889H9.50065H9.49241H9.48418H9.47594H9.46771H9.45947H9.45123H9.443H9.43476H9.42653H9.41829H9.41005H9.40182H9.39358H9.38535H9.37711H9.36887H9.36064H9.3524H9.34417H9.33593H9.32769H9.31946H9.31122H9.30299H9.29475H9.28652H9.27828H9.27004H9.26181H9.25357H9.24534H9.2371H9.22886H9.22063H9.21239H9.20416H9.19592H9.18768H9.17945H9.17121H9.16298H9.15474H9.1465H9.13827H9.13003H9.1218H9.11356H9.10533H9.09709H9.08885H9.08062H9.07238H9.06415H9.05591H9.04768H9.03944H9.0312H9.02297H9.01473H9.0065H8.99826H8.99002H8.98179H8.97355H8.96532H8.95708H8.94884H8.94061H8.93237H8.92414H8.9159H8.90767H8.89943H8.8912H8.88296H8.87472H8.86649H8.85825H8.85002H8.84178H8.83354H8.82531H8.81707H8.80884H8.8006H8.79237H8.78413H8.7759H8.76766H8.75942H8.75119H8.74295H8.73472H8.72648H8.71825H8.71001H8.70177H8.69354H8.6853H8.67707H8.66883H8.6606H8.65236H8.64412H8.63589H8.62765H8.61942H8.61118H8.60295H8.59471H8.58648H8.57824H8.57H8.56177H8.55353H8.5453H8.53706H8.52883H8.52059H8.51236H8.50412H8.49588H8.48765H8.47941H8.47118H8.46294H8.45471H8.44647H8.43824H8.43H8.42176H8.41353H8.40529H8.39706H8.38882H8.38059H8.37235H8.36412H8.35588H8.34764H8.33941H8.33117H8.32294H8.3147H8.30647H8.29823H8.29H8.28176H8.27353H8.26529H8.25705H8.24882H8.24058H8.23235H8.22411H8.21588H8.20764H8.19941H8.19117H8.18294H8.1747H8.16647H8.15823H8.14999H8.14176H8.13352H8.12529H8.11705H8.10882H8.10058H8.09235H8.08411H8.07588H8.06764H8.05941H8.05117H8.04293H8.0347H8.02646H8.01823H8.00999H8.00176H7.99352H7.98529H7.97705H7.96882H7.96058H7.95235H7.94411H7.93588H7.92764H7.91941H7.91117H7.90294H7.8947H7.88646H7.87823H7.86999H7.86176H7.85352H7.84529H7.83705H7.82882H7.82058H7.81235H7.80411H7.79588H7.78764H7.77941H7.77117H7.76294H7.7547H7.74647H7.73823H7.73H7.72176H7.71352H7.70529H7.69705H7.68882H7.68058H7.67235H7.66411H7.65588H7.64764H7.63941H7.63117H7.62294H7.6147H7.60647H7.59823H7.59H7.58176H7.57353H7.56529H7.55706H7.54882H7.54059H7.53235H7.52412H7.51588H7.50765H7.49941H7.49118H7.48294H7.47471H7.46647H7.45824H7.45H7.44177H7.43353H7.4253H7.41706H7.40883H7.40059H7.39236H7.38412H7.37589H7.36765H7.35942H7.35118H7.34295H7.33471H7.32648H7.31824H7.31001H7.30177H7.29354H7.2853H7.27707H7.26883H7.2606H7.25236H7.24413H7.23589H7.22766H7.21942H7.21119H7.20295H7.19472H7.18648H7.17825H7.17001H7.16178H7.15354H7.14531H7.13707H7.12884H7.1206H7.11237H7.10413H7.0959H7.08766H7.07943H7.07119H7.06296H7.05472H7.04649H7.03825H7.03002H7.02178H7.01355H7.00531H6.99708H6.98884H6.98061H6.97238H6.96414H6.95591H6.94767H6.93944H6.9312H6.92297H6.91473H6.9065H6.89826H6.89003H6.88179H6.87356H6.86532H6.85709H6.84885H6.84062H6.83238H6.82415H6.81591H6.80768H6.79945H6.79121H6.78298H6.77474H6.76651H6.75827H6.75004H6.7418H6.73357H6.72533H6.7171H6.70886H6.70063H6.69239H6.68416H6.67592H6.66769H6.65946H6.65122H6.64299H6.63475H6.62652H6.61828H6.61008H6.61005L2.45581 14.4266H2.45577C2.14347 14.4266 1.91275 14.3341 1.75954 14.1798C1.60606 14.0252 1.51338 13.7916 1.51122 13.4764L1.51122 13.4763C1.50655 12.84 1.5191 12.2261 1.68153 11.6226L1.68153 11.6226L1.68175 11.6218C1.93329 10.6643 2.45898 9.80119 3.19427 9.13836L3.19472 9.13795C3.47575 8.88242 3.85985 8.85264 4.21108 9.07164C4.75732 9.41537 5.37305 9.63357 6.01384 9.71049C7.06988 9.83886 8.06336 9.64494 8.97641 9.08207C9.19195 8.9495 9.40411 8.89697 9.63767 8.9477L9.63775 8.94772C9.79414 8.98159 9.93786 9.05878 10.0525 9.17045L10.0525 9.17045L10.0536 9.17157C11.1351 10.2016 11.6793 11.4592 11.6902 12.9528L11.6902 12.9539C11.6933 13.1662 11.6958 13.3755 11.6902 13.5838Z" fill="#31343D" stroke="#31343D" stroke-width="0.285"/>
<path d="M3.77509 4.20328L3.91759 4.20326C3.91746 3.49046 4.20032 2.80676 4.70403 2.30241C5.20768 1.79811 5.89093 1.51437 6.60366 1.51354C7.31641 1.5149 7.99953 1.79895 8.50311 2.30337C9.00671 2.8078 9.28963 3.49139 9.28981 4.20417C9.28888 4.91478 9.00626 5.59603 8.50387 6.0986C8.00148 6.60118 7.32032 6.88405 6.6097 6.88523V6.88524C6.25735 6.88616 5.90825 6.81773 5.58231 6.68382C5.25565 6.54962 4.95868 6.3523 4.70839 6.10316C4.4581 5.85402 4.25942 5.55796 4.12373 5.23192C3.98803 4.90588 3.91798 4.55628 3.91759 4.20313L3.77509 4.20328ZM3.77509 4.20328C3.77495 3.45271 4.07281 2.73279 4.6032 2.20172C5.13359 1.67064 5.85313 1.37186 6.6037 1.37104L3.77509 4.20328ZM6.61038 0.707109H6.60994C5.68648 0.707095 4.80056 1.0726 4.14575 1.72375C3.49094 2.3749 3.12048 3.25877 3.11532 4.18221L3.11532 4.18265C3.11301 5.10853 3.4779 5.99756 4.13001 6.65484C4.78211 7.31213 5.66822 7.68404 6.59409 7.68906L6.59475 7.68906C7.52048 7.68979 8.40878 7.32366 9.06514 6.67085C9.72151 6.01804 10.0925 5.13174 10.0968 4.20602V4.20541C10.097 3.27958 9.73021 2.39141 9.07666 1.73563C8.42312 1.07985 7.53621 0.709979 6.61038 0.707109Z" fill="#31343D" stroke="#31343D" stroke-width="0.285"/>
</svg>
