<svg width="13" height="13" viewBox="0 0 13 13" fill="none" xmlns="http://www.w3.org/2000/svg">
<path d="M11.3402 10.6921C11.3402 10.9114 11.3407 11.1273 11.3402 11.3426C11.3383 11.9406 10.9615 12.317 10.3625 12.317C7.56048 12.317 4.75795 12.3126 1.95589 12.3213C1.43162 12.3228 0.951204 11.9353 0.979634 11.3398C0.989753 11.1248 0.98108 10.909 0.98108 10.6801C0.772913 10.6801 0.577758 10.6801 0.38212 10.6801C0.106974 10.6801 0.00192746 10.5765 0.00192746 10.3057C0.00192746 8.89043 0.0028912 7.47567 0 6.06043C0 5.92117 0.0448136 5.81612 0.143114 5.72023C0.393203 5.47737 0.634618 5.22487 0.88567 4.98298C0.958914 4.91214 0.983007 4.83986 0.983007 4.7406C0.980116 3.47811 0.980116 2.21514 0.981561 0.952649C0.982043 0.504514 1.22298 0.162871 1.62533 0.0443317C1.71978 0.0163835 1.82194 0.0028912 1.92072 0.0028912C4.13056 0.000963732 6.33943 0.00192746 8.54831 0C8.66877 0 8.7637 0.0371037 8.84851 0.122394C9.63829 0.914582 10.429 1.70532 11.2217 2.49462C11.3118 2.58425 11.3422 2.68496 11.3417 2.80783C11.3393 3.46124 11.3417 4.11466 11.3388 4.76807C11.3388 4.85095 11.3624 4.90973 11.4217 4.96756C11.6795 5.22006 11.9315 5.47834 12.1888 5.73083C12.2808 5.82094 12.3208 5.92213 12.3208 6.05176C12.3184 7.47471 12.3194 8.89766 12.3189 10.3211C12.3189 10.5693 12.2086 10.6791 11.9594 10.6806C11.7672 10.6815 11.5744 10.6815 11.3822 10.682C11.3744 10.682 11.3667 10.6859 11.3398 10.6926L11.3402 10.6921ZM0.301648 10.3789H12.0202V5.99538H0.301648V10.3789ZM11.0424 3.03287H10.9157C10.1741 3.03287 9.43253 3.03287 8.69142 3.03287C8.41097 3.03287 8.30978 2.93071 8.3093 2.64737C8.3093 1.91397 8.3093 1.18057 8.3093 0.447172V0.293938C8.25099 0.293938 8.20811 0.293938 8.16522 0.293938C6.09705 0.293938 4.02888 0.293938 1.96071 0.293938C1.52222 0.293938 1.27598 0.540654 1.27598 0.979152C1.27598 2.50233 1.27598 4.02503 1.27598 5.54821C1.27598 5.59157 1.27598 5.63494 1.27598 5.68265H11.0424V3.03287ZM11.0415 10.6888H1.2755C1.2755 10.7726 1.2755 10.8483 1.2755 10.9239C1.2755 11.068 1.2755 11.2125 1.2755 11.3566C1.27646 11.7705 1.528 12.0245 1.94144 12.025C4.75505 12.0255 7.56867 12.025 10.3823 12.025C10.4064 12.025 10.4305 12.025 10.4546 12.0235C10.7581 12.0033 11.0179 11.7845 11.0381 11.4983C11.0569 11.2318 11.042 10.9629 11.042 10.6883L11.0415 10.6888ZM10.9996 2.73363C10.2064 1.94047 9.40844 1.14202 8.61384 0.347425V2.73363H10.9996ZM11.3407 5.33859C11.3407 5.43593 11.3369 5.53086 11.3436 5.62531C11.3455 5.6494 11.3807 5.68843 11.4029 5.68988C11.5002 5.6971 11.5985 5.69277 11.6978 5.69277C11.5764 5.57182 11.4626 5.45906 11.3407 5.33859ZM0.607633 5.69277C0.72569 5.69277 0.823509 5.69518 0.921328 5.69084C0.941567 5.68988 0.976261 5.66337 0.977225 5.64699C0.982525 5.54339 0.979634 5.43931 0.979634 5.31498C0.848566 5.44798 0.737737 5.56025 0.607151 5.69277H0.607633Z" fill="#F9FAFF"/>
<path d="M8.95839 9.22979C8.7748 9.22979 8.61531 9.23413 8.45677 9.22593C8.42593 9.22449 8.3869 9.18016 8.36907 9.14643C8.27945 8.97681 8.18693 8.80767 8.1132 8.63083C8.06502 8.51518 7.99659 8.47085 7.87709 8.49061C7.84673 8.49543 7.81493 8.49157 7.76963 8.49157V9.22208H7.27283V7.15343C7.28439 7.15006 7.29885 7.14235 7.3133 7.14235C7.60965 7.14235 7.906 7.13656 8.20235 7.1462C8.53532 7.1568 8.78492 7.33172 8.85287 7.5847C8.93912 7.90707 8.83022 8.16776 8.51652 8.36869C8.65916 8.64625 8.80227 8.92525 8.95888 9.22979H8.95839ZM7.77349 8.09259C7.91419 8.09259 8.04285 8.10511 8.16813 8.08921C8.30836 8.07138 8.37582 7.96393 8.37293 7.80877C8.37004 7.66228 8.29727 7.55386 8.16621 7.53892C8.03755 7.52447 7.906 7.53603 7.77349 7.53603V8.09259Z" fill="#F9FAFF"/>
<path d="M7.01407 8.21087C6.99817 8.31881 6.99046 8.44747 6.95913 8.57035C6.84541 9.01704 6.50473 9.27387 6.05756 9.25941C5.61906 9.24544 5.27212 8.95777 5.20755 8.50819C5.17478 8.2793 5.17719 8.03355 5.22297 7.80755C5.31645 7.34592 5.66918 7.09776 6.13803 7.11511C6.56689 7.13101 6.89649 7.42495 6.97648 7.86827C6.99576 7.97379 7.00009 8.08221 7.01358 8.21039L7.01407 8.21087ZM5.66918 8.20654C5.69809 8.35061 5.71447 8.49469 5.75832 8.6301C5.80699 8.77996 5.92312 8.86043 6.08744 8.86332C6.25368 8.86573 6.36692 8.78285 6.41944 8.63492C6.52545 8.33905 6.52545 8.03644 6.42137 7.74057C6.36499 7.58059 6.23682 7.50494 6.07828 7.50831C5.91878 7.51169 5.7988 7.59023 5.75013 7.7584C5.70821 7.90248 5.6952 8.05523 5.66918 8.20702V8.20654Z" fill="#F9FAFF"/>
<path d="M1.51982 8.55665H2.00603C2.09132 8.82987 2.17275 8.89299 2.4238 8.87661C2.52885 8.86986 2.62522 8.84047 2.65125 8.72C2.67678 8.60195 2.62812 8.51425 2.52018 8.46558C2.40742 8.4145 2.28792 8.3774 2.17613 8.32487C2.0465 8.26416 1.90869 8.20923 1.7969 8.12249C1.47067 7.86999 1.51404 7.41704 1.88074 7.22911C2.17372 7.07877 2.48211 7.06817 2.78713 7.1949C3.03192 7.29657 3.16925 7.5163 3.14805 7.76205C3.00301 7.76205 2.85604 7.76495 2.70955 7.75868C2.68883 7.75772 2.6604 7.71387 2.65221 7.68544C2.62282 7.58087 2.55584 7.52112 2.45175 7.50329C2.33321 7.48305 2.21757 7.48884 2.12842 7.58425C2.0571 7.66038 2.06626 7.77314 2.15781 7.83578C2.23588 7.88927 2.32695 7.92444 2.41417 7.96299C2.56017 8.02804 2.71437 8.07671 2.85267 8.15477C3.09408 8.29066 3.19865 8.50702 3.1519 8.78216C3.10902 9.03563 2.93073 9.16428 2.69702 9.22066C2.36791 9.29969 2.05084 9.27126 1.7675 9.06888C1.59596 8.94648 1.52127 8.77205 1.51886 8.55617L1.51982 8.55665Z" fill="#F9FAFF"/>
<path d="M10.803 7.14229C10.6083 7.53067 10.4305 7.89737 10.2406 8.25781C10.1616 8.40767 10.1187 8.55608 10.1288 8.72618C10.139 8.88905 10.1308 9.05289 10.1308 9.22347H9.62144C9.62144 9.02108 9.62819 8.82544 9.61855 8.63077C9.61422 8.53873 9.59446 8.44043 9.55447 8.35803C9.3781 7.99037 9.19162 7.62704 9.00899 7.26179C8.99165 7.22709 8.97719 7.19095 8.95551 7.14229C9.12657 7.14229 9.28221 7.13795 9.43737 7.14614C9.46773 7.14759 9.50821 7.19047 9.52314 7.22324C9.62385 7.44972 9.71926 7.67908 9.8166 7.90701C9.83347 7.947 9.85226 7.98652 9.87683 8.04145C9.99104 7.77257 10.1038 7.52055 10.2031 7.26372C10.2416 7.16445 10.2936 7.13168 10.3972 7.13988C10.5245 7.14951 10.6526 7.14229 10.8025 7.14229H10.803Z" fill="#F9FAFF"/>
<path d="M3.92724 9.22481V7.53202H3.32635V7.14941H5.0524V7.52961H4.43368V9.22529H3.92724V9.22481Z" fill="#F9FAFF"/>
<path d="M5.06734 3.58716C5.89278 3.58716 6.71822 3.58715 7.54414 3.58812C7.59955 3.58812 7.65737 3.59101 7.70942 3.60739C7.81928 3.64161 7.88096 3.74617 7.86891 3.85989C7.85783 3.96735 7.77977 4.05264 7.6699 4.06998C7.62268 4.07769 7.57401 4.07769 7.52631 4.07769C5.88314 4.07769 4.24046 4.07769 2.5973 4.07769C2.5573 4.07769 2.51683 4.07769 2.47731 4.07384C2.34384 4.0589 2.25421 3.96301 2.25276 3.83628C2.25132 3.71003 2.34046 3.60788 2.47105 3.59053C2.51442 3.58475 2.55923 3.58764 2.60308 3.58764C3.42466 3.58764 4.24624 3.58764 5.06783 3.58764L5.06734 3.58716Z" fill="#F9FAFF"/>
<path d="M5.05435 5.00666C4.23277 5.00666 3.41118 5.00666 2.59008 5.00666C2.54623 5.00666 2.50142 5.00906 2.45805 5.00328C2.33807 4.9869 2.25085 4.88137 2.25278 4.75946C2.25471 4.63706 2.34433 4.53684 2.46624 4.52334C2.5019 4.51949 2.53852 4.52093 2.57418 4.52093C4.23325 4.52093 5.89231 4.52093 7.55138 4.52093C7.58752 4.52093 7.62366 4.51901 7.65932 4.52334C7.78123 4.53828 7.86893 4.63851 7.86989 4.76139C7.87086 4.88378 7.78412 4.9869 7.66317 5.00328C7.62366 5.00858 7.58318 5.00617 7.54319 5.00617C6.7139 5.00617 5.88412 5.00617 5.05483 5.00617L5.05435 5.00666Z" fill="#F9FAFF"/>
<path d="M3.96388 2.6543C4.41683 2.6543 4.86979 2.6543 5.32226 2.6543C5.36997 2.6543 5.41912 2.65574 5.46538 2.66538C5.58054 2.68899 5.65427 2.78103 5.65716 2.89475C5.65957 3.00943 5.59114 3.10436 5.47742 3.13375C5.4355 3.14484 5.3902 3.14725 5.34684 3.14725C4.41732 3.14773 3.48731 3.14821 2.55779 3.14725C2.50672 3.14725 2.45178 3.14291 2.40504 3.12508C2.3 3.08509 2.24892 3.00076 2.25422 2.88993C2.25952 2.77862 2.31783 2.69959 2.42673 2.67068C2.47973 2.65671 2.53756 2.65526 2.59345 2.65526C3.05026 2.6543 3.50707 2.65478 3.96388 2.65478V2.6543Z" fill="#F9FAFF"/>
</svg>
