<svg width="15" height="17" viewBox="0 0 15 17" fill="none" xmlns="http://www.w3.org/2000/svg">
<path d="M8.80872 1.95515C8.80872 1.23396 8.22222 0.647461 7.50103 0.647461C6.77984 0.647461 6.19334 1.23396 6.19334 1.95515C6.19334 2.37492 6.39538 2.74435 6.70334 2.98431L1.5883 16.3398H2.29511L3.04507 14.3782H11.9132L12.656 16.3398H13.385L8.29807 2.98431C8.60668 2.745 8.80872 2.37492 8.80872 1.95515ZM7.50103 1.30131C7.86195 1.30131 8.15488 1.59488 8.15488 1.95515C8.15488 2.31542 7.86195 2.609 7.50103 2.609C7.14011 2.609 6.84718 2.31542 6.84718 1.95515C6.84718 1.59488 7.14011 1.30131 7.50103 1.30131ZM7.50103 10.3512L11.2293 13.7244H3.7728L7.50103 10.3512ZM3.55899 13.0359L5.33484 8.39227L7.01326 9.9105L3.55899 13.0359ZM7.98814 9.9105L9.65153 8.40535L11.3855 12.9836L7.9888 9.90985L7.98814 9.9105ZM7.50038 9.46915L5.69968 7.83977H9.30172L7.50103 9.46915H7.50038ZM7.70372 3.26285L9.18926 7.18592H5.7958L7.29638 3.26285H7.70372ZM10.1158 1.95515C10.1158 1.487 9.98368 1.04173 9.75418 0.647461H10.4924C10.6709 1.05546 10.7696 1.49681 10.7696 1.95515C10.7696 2.69269 10.514 3.38512 10.0667 3.95658L9.7823 3.20988C9.99284 2.82804 10.1158 2.40304 10.1158 1.95515ZM11.8857 0.647461H12.5579C13.0031 2.38081 12.554 4.29919 11.1992 5.65396C11.0828 5.77035 10.9618 5.87758 10.8376 5.98088L10.5885 5.32638C10.6375 5.28127 10.6892 5.24008 10.7369 5.19235C11.9648 3.96442 12.348 2.20688 11.8857 0.648115V0.647461ZM13.9022 0.647461H14.5671C14.9797 2.89669 14.3213 5.30546 12.586 7.04077C12.2669 7.35985 11.9223 7.63773 11.5627 7.88423L11.3215 7.25131C11.6013 7.04927 11.872 6.83023 12.1231 6.5785C13.7315 4.97004 14.3226 2.72538 13.9015 0.647461L13.9022 0.647461ZM3.80222 5.65396C2.44745 4.29919 1.99826 2.38081 2.44288 0.647461H3.11503C2.65342 2.20558 3.03591 3.96377 4.26384 5.19169C4.31026 5.23812 4.35995 5.278 4.40768 5.32115L4.15726 5.975C4.03565 5.87365 3.91665 5.76773 3.80222 5.65396ZM2.41542 7.04142C0.679454 5.30546 0.0210311 2.89669 0.433608 0.647461H1.09857C0.677492 2.72604 1.26857 4.97004 2.87703 6.5785C3.12615 6.82762 3.39422 7.04469 3.6708 7.24542L3.42888 7.87769C3.07253 7.6325 2.73122 7.35723 2.41542 7.04077V7.04142ZM4.93207 3.95396C4.48615 3.3825 4.2318 2.69204 4.2318 1.95581C4.2318 1.49746 4.33053 1.05611 4.50903 0.648115H5.24722C5.01772 1.04238 4.88565 1.48765 4.88565 1.95581C4.88565 2.40238 5.00791 2.82673 5.2178 3.20792L4.93207 3.95396Z" fill="#F9FAFF"/>
</svg>
