<svg width="17" height="17" viewBox="0 0 17 17" fill="none" xmlns="http://www.w3.org/2000/svg">
<path d="M1.3101 10.7821C1.3101 11.3248 1.74817 11.7628 2.29087 11.7628H8.17548C8.35856 11.7628 8.50241 11.9067 8.50241 12.0898C8.50241 12.2728 8.35856 12.4167 8.17548 12.4167H2.29087C1.38856 12.4167 0.65625 11.6844 0.65625 10.7821C0.65625 9.99092 1.21856 9.33054 1.96394 9.18015V3.58977C1.96394 1.96823 3.28471 0.647461 4.90625 0.647461H12.0986C13.7201 0.647461 15.0409 1.96823 15.0409 3.58977V4.89746C15.0409 5.08054 14.897 5.22438 14.7139 5.22438C14.5309 5.22438 14.387 5.08054 14.387 4.89746V3.58977C14.387 2.32785 13.3605 1.30131 12.0986 1.30131H4.90625C3.64433 1.30131 2.61779 2.32785 2.61779 3.58977V9.14746H6.21394C6.29894 9.14746 6.38394 9.18015 6.44279 9.24554L6.99856 9.80131H8.16894C8.35202 9.80131 8.49587 9.94515 8.49587 10.1282C8.49587 10.3113 8.35202 10.4552 8.16894 10.4552H6.86125C6.77625 10.4552 6.69125 10.4225 6.63241 10.3571L6.07664 9.80131H2.29087C1.74817 9.80131 1.3101 10.2394 1.3101 10.7821ZM16.3486 8.82054V14.0513C16.3486 15.3132 15.322 16.3398 14.0601 16.3398H12.0986C10.8366 16.3398 9.8101 15.3132 9.8101 14.0513V8.82054C9.8101 7.55862 10.8366 6.53208 12.0986 6.53208H14.0601C15.322 6.53208 16.3486 7.55862 16.3486 8.82054ZM15.6947 8.82054C15.6947 7.91823 14.9624 7.18592 14.0601 7.18592H12.0986C11.1963 7.18592 10.4639 7.91823 10.4639 8.82054V14.0513C10.4639 14.9536 11.1963 15.6859 12.0986 15.6859H14.0601C14.9624 15.6859 15.6947 14.9536 15.6947 14.0513V8.82054Z" fill="#F9FAFF"/>
</svg>
