<svg width="16" height="17" viewBox="0 0 16 17" fill="none" xmlns="http://www.w3.org/2000/svg">
<path d="M14.868 1.12583C14.2305 0.488331 13.1935 0.487677 12.5567 1.12583L11.5158 2.16872C11.5158 2.16872 11.5105 2.17133 11.5086 2.17329C11.5066 2.17525 11.5059 2.17852 11.504 2.18049L7.70906 5.98391C7.16114 6.53183 6.8473 7.28964 6.8473 8.06445V8.83076C6.8473 9.01122 6.99376 9.15768 7.17422 9.15768H7.94053C8.71533 9.15768 9.47314 8.84383 10.0211 8.29591L14.8687 3.43718C15.1779 3.12791 15.3473 2.71729 15.3473 2.28118C15.3473 1.84506 15.1773 1.43379 14.8687 1.12518L14.868 1.12583ZM9.55814 7.83364C9.13249 8.25929 8.54206 8.50383 7.93987 8.50383H7.50049V8.06445C7.50049 7.46226 7.74503 6.87249 8.17068 6.44618L11.7407 2.86833L13.1275 4.25514L9.55749 7.83299L9.55814 7.83364ZM14.4058 2.97491L13.5898 3.79222L12.2029 2.40541L13.019 1.5881C13.4008 1.20625 14.0239 1.20625 14.4058 1.5881C14.5908 1.77314 14.6928 2.01899 14.6928 2.28183C14.6928 2.54468 14.5908 2.78987 14.4058 2.97556V2.97491ZM14.481 11.1284C14.598 11.5494 14.5437 11.9901 14.3279 12.37C14.1135 12.7499 13.763 13.0232 13.342 13.1403C12.9202 13.2566 12.4808 13.203 12.1003 12.9866L11.6093 12.7087C10.9142 13.3894 10.0675 13.883 9.13576 14.1524V14.7154C9.13576 15.617 8.4028 16.35 7.50114 16.35C6.59949 16.35 5.86653 15.617 5.86653 14.7154V14.1524C4.9348 13.883 4.08806 13.3894 3.39302 12.7087L2.90133 12.9873C2.52079 13.203 2.07879 13.2547 1.66033 13.1403C1.23926 13.0232 0.888794 12.7499 0.673678 12.3694C0.458563 11.9901 0.404294 11.5488 0.521332 11.1284C0.637717 10.7073 0.911678 10.3568 1.29156 10.1417L1.78064 9.86514C1.6721 9.41333 1.61718 8.95564 1.61718 8.50383C1.61718 8.05202 1.6721 7.59433 1.78064 7.14252L1.29156 6.86595C0.911678 6.65018 0.637717 6.30037 0.521332 5.87929C0.404294 5.45822 0.458563 5.01752 0.674332 4.63764C0.888794 4.25775 1.23926 3.98445 1.66033 3.86741C2.08206 3.75233 2.52145 3.80464 2.90199 4.02106L3.39302 4.29895C4.08806 3.61829 4.9348 3.12464 5.86653 2.85525V2.29229C5.86653 1.39064 6.59949 0.657677 7.50114 0.657677C8.4028 0.657677 9.13576 1.39064 9.13576 2.29229V2.94614C9.13576 3.1266 8.9893 3.27306 8.80883 3.27306C8.62837 3.27306 8.48191 3.1266 8.48191 2.94614V2.29229C8.48191 1.75156 8.04187 1.31152 7.50114 1.31152C6.96041 1.31152 6.52037 1.75156 6.52037 2.29229V3.10699C6.52037 3.25737 6.41706 3.38945 6.26995 3.42475C5.28068 3.66406 4.38818 4.18452 3.68922 4.93056C3.58526 5.04041 3.42114 5.0646 3.28972 4.99202L2.57964 4.59056C2.35145 4.4611 2.08664 4.42972 1.83426 4.49772C1.58187 4.56768 1.37199 4.73179 1.24318 4.95999C1.11372 5.18818 1.08102 5.45233 1.15099 5.70472C1.22029 5.95776 1.38441 6.16764 1.61326 6.2971L2.32072 6.69726C2.45214 6.77179 2.51556 6.92676 2.47372 7.07126C2.33837 7.5466 2.26972 8.02849 2.26972 8.50318C2.26972 8.97787 2.33772 9.46041 2.47372 9.9351C2.51491 10.0803 2.45214 10.2346 2.32072 10.3091L1.6126 10.7099C1.38441 10.8387 1.22029 11.0493 1.15099 11.301C1.08102 11.554 1.11306 11.8182 1.24252 12.0457C1.37199 12.2746 1.58252 12.4387 1.83426 12.5086C2.08664 12.5779 2.35079 12.5459 2.57899 12.4164L3.28972 12.0143C3.42179 11.9424 3.58591 11.9659 3.68922 12.0758C4.38818 12.8218 5.28133 13.3423 6.26995 13.5816C6.41706 13.6176 6.52037 13.749 6.52037 13.8994V14.7141C6.52037 15.2548 6.96041 15.6948 7.50114 15.6948C8.04187 15.6948 8.48191 15.2548 8.48191 14.7141V13.8994C8.48191 13.749 8.58522 13.6169 8.73233 13.5816C9.7216 13.3423 10.6141 12.8218 11.3131 12.0758C11.4164 11.9653 11.5805 11.9411 11.7126 12.0143L12.4226 12.4158C12.6515 12.5453 12.9163 12.5779 13.168 12.5086C13.4204 12.4387 13.6303 12.2746 13.7591 12.0464C13.8886 11.8182 13.9213 11.554 13.8513 11.301C13.782 11.0486 13.6179 10.8387 13.3897 10.7099L12.6816 10.3091C12.5501 10.2346 12.4867 10.0796 12.5286 9.9351C12.6639 9.45976 12.7326 8.97787 12.7326 8.50318C12.7326 8.19522 12.7038 7.88595 12.6482 7.58191C12.6149 7.40472 12.7326 7.23406 12.9098 7.20137C13.0843 7.16606 13.2576 7.28506 13.2903 7.46291C13.3544 7.80552 13.3858 8.15599 13.3858 8.50318C13.3858 8.95499 13.3308 9.41268 13.2223 9.86449L13.7114 10.1411C14.0913 10.3562 14.3652 10.7066 14.4816 11.1277L14.481 11.1284ZM5.06687 7.54529C4.77656 8.28283 4.83868 9.11583 5.24276 9.8926C5.43499 10.2614 5.74426 10.5706 6.11303 10.7629C6.88914 11.1663 7.72214 11.2284 8.46033 10.9388C9.16583 10.6602 9.71572 10.0907 9.9681 9.37606C10.0296 9.20606 10.2159 9.11714 10.3859 9.17664C10.5559 9.23745 10.6448 9.42379 10.5853 9.59445C10.2695 10.4876 9.58233 11.199 8.7003 11.5462C8.31649 11.6979 7.91306 11.7731 7.50441 11.7731C6.93818 11.7731 6.36214 11.6286 5.81226 11.3428C5.32449 11.0898 4.91649 10.6818 4.66345 10.194C4.17045 9.24791 4.09853 8.22137 4.45945 7.30599C4.80664 6.42395 5.51803 5.73741 6.41118 5.42095C6.58183 5.36014 6.76753 5.44972 6.82899 5.62037C6.88914 5.79102 6.79956 5.97737 6.62956 6.03818C5.91491 6.29056 5.34541 6.83979 5.06687 7.54529Z" fill="#F9FAFF"/>
</svg>
