<svg width="12" height="12" viewBox="0 0 12 12" fill="none" xmlns="http://www.w3.org/2000/svg">
<path d="M10 5.75V9.75C10 10.9905 8.9905 12 7.75 12H2.25C1.0095 12 0 10.9905 0 9.75V2.25C0 1.0095 1.0095 0 2.25 0H7.75C7.94 0 8.1295 0.024 8.312 0.071C8.446 0.1055 8.5265 0.2415 8.492 0.3755C8.458 0.509 8.3195 0.5895 8.188 0.5555C8.0455 0.519 7.898 0.5005 7.75 0.5005H2.25C1.285 0.5005 0.5 1.2855 0.5 2.2505V9.7505C0.5 10.7155 1.285 11.5005 2.25 11.5005H7.75C8.715 11.5005 9.5 10.7155 9.5 9.7505V5.75C9.5 5.612 9.612 5.5 9.75 5.5C9.888 5.5 10 5.612 10 5.75ZM5.75 9H7.75C7.888 9 8 8.888 8 8.75C8 8.612 7.888 8.5 7.75 8.5H5.75C5.612 8.5 5.5 8.612 5.5 8.75C5.5 8.888 5.612 9 5.75 9ZM12 1.25C12 1.584 11.87 1.898 11.634 2.134L8.2805 5.4875C7.9505 5.818 7.511 6 7.043 6H6.25C6.112 6 6 5.888 6 5.75V4.957C6 4.4965 6.187 4.0455 6.5125 3.7195L9.866 0.366C10.3535 -0.1215 11.1465 -0.1215 11.6335 0.366C11.87 0.602 12 0.916 12 1.25ZM11.5 1.25C11.5 1.0495 11.422 0.8615 11.2805 0.7195C10.9885 0.427 10.512 0.427 10.22 0.7195L6.8665 4.073C6.6335 4.3055 6.5005 4.628 6.5005 4.957V5.5H7.0435C7.3775 5.5 7.6915 5.37 7.9275 5.134L11.281 1.7805C11.4225 1.639 11.5 1.4505 11.5 1.25ZM4.573 7.573L3.2785 8.8675C3.1065 9.039 2.8335 9.0445 2.6575 8.8845L1.922 8.183C1.8225 8.088 1.6635 8.091 1.569 8.1915C1.4735 8.291 1.477 8.4495 1.5775 8.5445L2.3165 9.2495C2.499 9.4175 2.7295 9.5005 2.9595 9.5005C3.203 9.5005 3.4465 9.407 3.6325 9.221L4.927 7.9265C5.0245 7.829 5.0245 7.6705 4.927 7.573C4.8295 7.4755 4.671 7.4755 4.5735 7.573H4.573ZM4.9265 5.073C4.829 4.9755 4.6705 4.9755 4.573 5.073L3.2785 6.3675C3.1065 6.5385 2.8335 6.545 2.6575 6.3845L1.922 5.683C1.8225 5.5885 1.6635 5.5915 1.569 5.6915C1.4735 5.7915 1.477 5.9495 1.5775 6.045L2.3165 6.75C2.499 6.918 2.7295 7.001 2.9595 7.001C3.203 7.001 3.4465 6.9075 3.6325 6.7215L4.927 5.427C5.0245 5.3295 5.0245 5.171 4.927 5.0735L4.9265 5.073ZM4.9265 2.573C4.829 2.4755 4.6705 2.4755 4.573 2.573L3.2785 3.8675C3.1065 4.039 2.832 4.045 2.658 3.8845L1.9225 3.1825C1.822 3.0875 1.6635 3.091 1.569 3.191C1.4735 3.291 1.477 3.449 1.577 3.5445L2.3165 4.25C2.4995 4.4175 2.7295 4.5005 2.9595 4.5005C3.203 4.5005 3.4465 4.407 3.6325 4.221L4.927 2.9265C5.0245 2.829 5.0245 2.6705 4.927 2.573H4.9265Z" fill="#F9FAFF"/>
</svg>
