<svg width="17" height="17" viewBox="0 0 17 17" fill="none" xmlns="http://www.w3.org/2000/svg">
<path d="M16.349 16.0154C16.349 16.1958 16.2025 16.3423 16.022 16.3423H0.983576C0.803115 16.3423 0.656653 16.1958 0.656653 16.0154C0.656653 15.8349 0.803115 15.6885 0.983576 15.6885H16.022C16.2025 15.6885 16.349 15.8349 16.349 16.0154ZM0.81423 5.73627C0.577538 5.2838 0.608269 4.76596 0.896615 4.35142C1.16469 3.965 2.16835 3.44323 2.16965 3.44257L7.04146 1.00438C7.95423 0.52838 9.05007 0.527726 9.96938 1.007L14.972 3.54327L14.9752 3.54457C14.9752 3.54457 15.8612 3.99311 16.1097 4.35011C16.3973 4.76465 16.4281 5.2825 16.1914 5.73496C15.9331 6.2273 15.4212 6.5333 14.8543 6.5333H14.3874V13.0718H15.3682C15.5486 13.0718 15.6951 13.2182 15.6951 13.3987C15.6951 13.5792 15.5486 13.7256 15.3682 13.7256H1.63742C1.45696 13.7256 1.3105 13.5792 1.3105 13.3987C1.3105 13.2182 1.45696 13.0718 1.63742 13.0718H2.61819V6.5333H2.15135C1.58446 6.5333 1.0725 6.2273 0.81423 5.73496V5.73627ZM3.27204 13.0731H5.88873L5.91161 6.53461H3.27204V13.0731ZM6.56546 6.53461L6.54258 13.0731H10.4643V6.53461H6.56546ZM13.7336 6.53461H11.1182V13.0731H13.7336V6.53461ZM1.39419 5.43288C1.53869 5.7088 1.82835 5.88077 2.15135 5.88077H14.8543C15.1773 5.88077 15.4676 5.70946 15.6114 5.43288C15.735 5.19619 15.7206 4.93792 15.5722 4.72411C15.4185 4.50311 15.1191 4.35207 14.8294 4.20561L9.66992 1.58892C9.30377 1.398 8.90231 1.30253 8.50215 1.30253C8.102 1.30253 7.7025 1.39734 7.33831 1.58696L2.46258 4.02711C2.09315 4.21934 1.60931 4.47042 1.43408 4.72411C1.285 4.93857 1.27061 5.19684 1.39419 5.43288Z" fill="#F9FAFF"/>
</svg>
