<svg width="17" height="17" viewBox="0 0 17 17" fill="none" xmlns="http://www.w3.org/2000/svg">
<path d="M15.052 4.46241L14.387 4.01387V1.6306C14.387 1.45014 14.2406 1.30368 14.0601 1.30368C13.8796 1.30368 13.7332 1.45014 13.7332 1.6306V3.57252L10.1481 1.15329C9.14841 0.478523 7.85575 0.479177 6.85733 1.15329L1.95283 4.46241C1.14075 5.00968 0.65625 5.92179 0.65625 6.90126V13.3998C0.65625 15.022 1.97637 16.3421 3.59856 16.3421H5.5601C5.74056 16.3421 5.88702 16.1957 5.88702 16.0152V10.1306C5.88702 9.58987 6.32706 9.14983 6.86779 9.14983H10.137C10.6778 9.14983 11.1178 9.58987 11.1178 10.1306V16.0152C11.1178 16.1957 11.2643 16.3421 11.4447 16.3421H13.4063C15.0284 16.3421 16.3486 15.022 16.3486 13.3998V6.90126C16.3486 5.92114 15.8641 5.00968 15.052 4.46241ZM15.6947 13.3998C15.6947 14.6618 14.6682 15.6883 13.4063 15.6883H11.7716V10.1306C11.7716 9.2296 11.0387 8.49599 10.137 8.49599H6.86779C5.96614 8.49599 5.23317 9.2296 5.23317 10.1306V15.6883H3.59856C2.33663 15.6883 1.3101 14.6618 1.3101 13.3998V6.90126C1.3101 6.13887 1.68671 5.4301 2.31833 5.00445L7.22217 1.69533C7.9996 1.17029 9.00521 1.17029 9.78264 1.69533L14.6865 5.00445C15.3181 5.4301 15.6947 6.13953 15.6947 6.90126V13.3998Z" fill="#F9FAFF"/>
</svg>
