<svg width="17" height="17" viewBox="0 0 17 17" fill="none" xmlns="http://www.w3.org/2000/svg">
<path d="M12.7524 7.83977C14.7355 7.83977 16.3486 6.22608 16.3486 4.24362C16.3486 2.26115 14.7355 0.647461 12.7524 0.647461C10.7693 0.647461 9.15625 2.26115 9.15625 4.24362C9.15625 6.22608 10.7693 7.83977 12.7524 7.83977ZM12.7524 1.30131C14.3746 1.30131 15.6947 2.62142 15.6947 4.24362C15.6947 5.86581 14.3746 7.18592 12.7524 7.18592C11.1302 7.18592 9.8101 5.86581 9.8101 4.24362C9.8101 2.62142 11.1302 1.30131 12.7524 1.30131ZM12.5209 4.47508C12.4595 4.41362 12.4255 4.33058 12.4255 4.24362V2.609C12.4255 2.42854 12.5719 2.28208 12.7524 2.28208C12.9329 2.28208 13.0793 2.42854 13.0793 2.609V4.10827L13.9646 4.99358C14.0921 5.12108 14.0921 5.32835 13.9646 5.45585C13.9006 5.51992 13.8169 5.55131 13.7332 5.55131C13.6495 5.55131 13.5658 5.51927 13.5017 5.45585L12.5209 4.47508ZM11.7716 13.7244C11.0504 13.7244 10.4639 14.3109 10.4639 15.0321C10.4639 15.7533 11.0504 16.3398 11.7716 16.3398C12.4928 16.3398 13.0793 15.7533 13.0793 15.0321C13.0793 14.3109 12.4928 13.7244 11.7716 13.7244ZM11.7716 15.6859C11.4114 15.6859 11.1178 15.393 11.1178 15.0321C11.1178 14.6712 11.4114 14.3782 11.7716 14.3782C12.1319 14.3782 12.4255 14.6712 12.4255 15.0321C12.4255 15.393 12.1319 15.6859 11.7716 15.6859ZM5.23317 13.7244C4.51198 13.7244 3.92548 14.3109 3.92548 15.0321C3.92548 15.7533 4.51198 16.3398 5.23317 16.3398C5.95437 16.3398 6.54087 15.7533 6.54087 15.0321C6.54087 14.3109 5.95437 13.7244 5.23317 13.7244ZM5.23317 15.6859C4.8729 15.6859 4.57933 15.393 4.57933 15.0321C4.57933 14.6712 4.8729 14.3782 5.23317 14.3782C5.59344 14.3782 5.88702 14.6712 5.88702 15.0321C5.88702 15.393 5.59344 15.6859 5.23317 15.6859ZM15.4103 8.97485C14.8872 9.88762 13.9084 10.4552 12.8564 10.4552H4.5924C4.7539 11.5739 5.72487 12.4167 6.85602 12.4167H13.4056C13.5861 12.4167 13.7325 12.5632 13.7325 12.7436C13.7325 12.9241 13.5861 13.0705 13.4056 13.0705H6.85667C5.39598 13.0705 4.14321 11.9793 3.94248 10.5323L2.77798 2.14673C2.71063 1.66485 2.29283 1.30131 1.80637 1.30131H0.983173C0.802712 1.30131 0.65625 1.15485 0.65625 0.974384C0.65625 0.793923 0.802712 0.647461 0.983173 0.647461H1.80637C2.61713 0.647461 3.31348 1.25358 3.42529 2.0565L3.59267 3.26285H7.52164C7.7021 3.26285 7.84856 3.40931 7.84856 3.58977C7.84856 3.77023 7.7021 3.91669 7.52164 3.91669H3.68356L4.50087 9.80131H12.857C13.675 9.80131 14.4367 9.35996 14.8441 8.64923C14.933 8.49231 15.1331 8.43935 15.29 8.52827C15.4469 8.61719 15.5005 8.81727 15.4103 8.97485Z" fill="#F9FAFF"/>
</svg>
