<svg width="17" height="17" viewBox="0 0 17 17" fill="none" xmlns="http://www.w3.org/2000/svg">
<path d="M10.4639 4.57054C10.4639 2.40696 8.70444 0.647461 6.54087 0.647461C4.37729 0.647461 2.61779 2.40696 2.61779 4.57054C2.61779 6.73412 4.37729 8.49362 6.54087 8.49362C8.70444 8.49362 10.4639 6.73412 10.4639 4.57054ZM6.54087 7.83977C4.73821 7.83977 3.27164 6.37319 3.27164 4.57054C3.27164 2.76788 4.73821 1.30131 6.54087 1.30131C8.34352 1.30131 9.8101 2.76788 9.8101 4.57054C9.8101 6.37319 8.34352 7.83977 6.54087 7.83977ZM6.53956 10.1008C6.5546 10.2799 6.42121 10.4388 6.2414 10.4538C3.47629 10.6886 1.3101 13.0588 1.3101 15.8494V16.0128C1.3101 16.1933 1.16363 16.3398 0.983173 16.3398C0.802712 16.3398 0.65625 16.1933 0.65625 16.0128V15.8494C0.65625 12.722 3.08529 10.0661 6.18648 9.80262C6.3676 9.78889 6.52387 9.92096 6.53956 10.1008ZM12.0986 7.83977C9.75517 7.83977 7.84856 9.74639 7.84856 12.0898C7.84856 14.4332 9.75517 16.3398 12.0986 16.3398C14.4419 16.3398 16.3486 14.4332 16.3486 12.0898C16.3486 9.74639 14.4419 7.83977 12.0986 7.83977ZM12.4255 15.6696V14.7052C12.4255 14.5247 12.279 14.3782 12.0986 14.3782C11.9181 14.3782 11.7716 14.5247 11.7716 14.7052V15.6696C10.0494 15.5133 8.67502 14.1389 8.51875 12.4167H9.48317C9.66364 12.4167 9.8101 12.2702 9.8101 12.0898C9.8101 11.9093 9.66364 11.7628 9.48317 11.7628H8.51875C8.67502 10.0406 10.0494 8.66623 11.7716 8.50996V9.47439C11.7716 9.65485 11.9181 9.80131 12.0986 9.80131C12.279 9.80131 12.4255 9.65485 12.4255 9.47439V8.50996C14.1477 8.66623 15.5221 10.0406 15.6784 11.7628H14.7139C14.5335 11.7628 14.387 11.9093 14.387 12.0898C14.387 12.2702 14.5335 12.4167 14.7139 12.4167H15.6784C15.5221 14.1389 14.1477 15.5133 12.4255 15.6696Z" fill="#F9FAFF"/>
</svg>
