<svg width="9" height="12" viewBox="0 0 9 12" fill="none" xmlns="http://www.w3.org/2000/svg">
<g clip-path="url(#clip0_1815_102)">
<path d="M0.00153798 6.00366C0.00153798 7.24268 -0.00353256 8.48123 0.00322864 9.72025C0.00872212 10.6802 0.418197 11.3687 1.18728 11.7945C1.45604 11.9436 1.74889 11.9971 2.04722 11.9976C3.68132 11.9994 5.315 12.0013 6.94909 11.9976C7.93158 11.9952 8.71841 11.3058 8.94999 10.2478C8.98464 10.0903 8.99647 9.92284 8.99647 9.76011C8.99985 7.25487 9.00196 4.74964 8.99731 2.24487C8.9952 1.26472 8.46318 0.439804 7.62606 0.127939C7.4097 0.0472766 7.17094 0.00835207 6.94275 0.00694516C5.31584 -0.00290321 3.68893 -8.9389e-05 2.06201 0.00225546C1.08418 0.00366237 0.305369 0.668662 0.0602759 1.71915C0.0150604 1.91284 0.00491848 2.12106 0.00407333 2.32225C-0.000997572 3.54954 0.00153798 4.77637 0.00153798 6.00366ZM0.439748 6.00366C0.439748 4.77309 0.438481 3.54204 0.441439 2.31146C0.441439 2.16796 0.449468 2.02117 0.476512 1.88142C0.639204 1.04524 1.27983 0.488577 2.07554 0.488108C3.69146 0.486701 5.30739 0.486701 6.92332 0.489515C7.04586 0.489515 7.17052 0.50077 7.29011 0.527971C8.04272 0.700083 8.5591 1.4026 8.55995 2.26269C8.56248 4.75526 8.56122 7.24831 8.55953 9.74088C8.55953 9.86516 8.54938 9.99178 8.52657 10.1128C8.37317 10.9293 7.73339 11.5075 6.96219 11.5103C5.32176 11.5159 3.6809 11.5127 2.04046 11.5112C1.74635 11.5112 1.46449 11.4362 1.2156 11.2618C0.707661 10.9058 0.441016 10.3923 0.440171 9.71978C0.438903 8.48123 0.440171 7.24268 0.440171 6.00413L0.439748 6.00366Z" fill="#F9FAFF"/>
<path d="M6.54015 3.48922C6.67749 3.48922 6.81441 3.49109 6.95174 3.48875C7.11317 3.48593 7.19937 3.39401 7.20106 3.21299C7.20402 2.90488 7.2036 2.5963 7.20106 2.28818C7.19979 2.10997 7.11866 2.00774 6.95681 2.00305C6.672 1.99508 6.38718 1.99508 6.10237 2.00305C5.94052 2.00774 5.85939 2.10997 5.85812 2.28818C5.85601 2.59254 5.85601 2.89691 5.85812 3.20127C5.85939 3.39542 5.9439 3.4864 6.11843 3.48828C6.25914 3.48968 6.39986 3.48828 6.54015 3.48828V3.48922ZM6.75482 2.5011V2.99492H6.30563V2.5011H6.75482Z" fill="#F9FAFF"/>
<path d="M6.52806 6.49088C6.66878 6.49088 6.80949 6.49275 6.94979 6.49041C7.11164 6.48806 7.19742 6.39568 7.19911 6.21512C7.20207 5.90701 7.20164 5.59843 7.19911 5.29031C7.19784 5.11211 7.11671 5.00987 6.95486 5.00518C6.67004 4.99721 6.38523 4.99674 6.10041 5.00518C5.93519 5.00987 5.85659 5.11445 5.85574 5.30204C5.85448 5.60265 5.85405 5.90279 5.85574 6.2034C5.85701 6.39755 5.94153 6.489 6.11605 6.49088C6.25296 6.49228 6.3903 6.49088 6.52764 6.49088H6.52806ZM6.3041 6.0008V5.50745H6.75287V6.0008H6.3041Z" fill="#F9FAFF"/>
<path d="M6.52806 9.49168C6.66878 9.49168 6.80949 9.49355 6.94979 9.49121C7.11121 9.48886 7.19742 9.39647 7.19911 9.21592C7.20207 8.90781 7.20164 8.59923 7.19911 8.29111C7.19784 8.1129 7.11671 8.01067 6.95486 8.00598C6.67004 7.99801 6.38523 7.99801 6.10041 8.00598C5.93857 8.01067 5.85743 8.1129 5.85617 8.29111C5.85405 8.59547 5.85405 8.89984 5.85617 9.2042C5.85743 9.39835 5.94195 9.48886 6.11647 9.49168C6.11985 9.49168 6.12366 9.49168 6.12704 9.49168C6.26057 9.49168 6.3941 9.49168 6.52806 9.49168ZM6.7571 8.99644H6.30071V8.50918H6.7571V8.99644Z" fill="#F9FAFF"/>
<path d="M3.37115 2.50823C2.93125 2.50823 2.49093 2.50682 2.05103 2.50917C1.87439 2.51011 1.75987 2.65502 1.81988 2.81541C1.84566 2.88388 1.91792 2.93734 1.97919 2.98001C2.01342 3.00393 2.06793 2.99408 2.11357 2.99408C2.95491 2.99455 3.79626 2.99502 4.63803 2.99408C4.68663 2.99408 4.73734 2.99221 4.78382 2.97814C4.89158 2.94531 4.95243 2.83979 4.93975 2.72021C4.92792 2.60296 4.85523 2.52277 4.7441 2.51198C4.68113 2.50589 4.61732 2.5087 4.55394 2.5087C4.15968 2.5087 3.76541 2.5087 3.37115 2.5087V2.50823Z" fill="#F9FAFF"/>
<path d="M3.37124 5.51041C2.93134 5.51041 2.49102 5.50901 2.05112 5.51135C1.87448 5.51229 1.75954 5.6572 1.81955 5.81712C1.84533 5.88559 1.91759 5.93905 1.97886 5.98173C2.01309 6.00565 2.0676 5.9958 2.11324 5.9958C2.95458 5.99627 3.79593 5.99674 4.6377 5.9958C4.6863 5.9958 4.73701 5.99392 4.78349 5.97985C4.89167 5.94702 4.9521 5.84151 4.93984 5.72239C4.92801 5.60515 4.85575 5.52495 4.74461 5.5137C4.68165 5.5076 4.61784 5.51041 4.55445 5.51041C4.16019 5.51041 3.76593 5.51041 3.37167 5.51041H3.37124Z" fill="#F9FAFF"/>
<path d="M3.36987 8.51168C2.92997 8.51168 2.48965 8.51027 2.04975 8.51262C1.871 8.51356 1.76155 8.66597 1.81818 8.83292C1.85579 8.94454 1.93692 8.99378 2.04045 8.99659C2.15286 8.99988 2.26569 8.99753 2.37851 8.99753C3.13196 8.99753 3.88542 8.99753 4.63887 8.99706C4.68746 8.99706 4.73817 8.99519 4.78466 8.98065C4.89199 8.94735 4.95242 8.84137 4.93974 8.72225C4.92706 8.605 4.8548 8.52153 4.74324 8.51543C4.60295 8.50793 4.46181 8.51168 4.32109 8.51168C4.00416 8.51168 3.68723 8.51168 3.37072 8.51168H3.36987Z" fill="#F9FAFF"/>
</g>
<defs>
<clipPath id="clip0_1815_102">
<rect width="9" height="12" fill="white" transform="matrix(-1 0 0 1 9 0)"/>
</clipPath>
</defs>
</svg>
