<svg width="12" height="14" viewBox="0 0 12 14" fill="none" xmlns="http://www.w3.org/2000/svg">
<path d="M2.45498 2.91667C3.20658 2.91667 3.81855 2.26275 3.81855 1.45833C3.81855 0.653917 3.20658 0 2.45498 0C1.70338 0 1.0914 0.653917 1.0914 1.45833C1.0914 2.26275 1.70338 2.91667 2.45498 2.91667ZM2.45498 0.583333C2.90605 0.583333 3.27312 0.975917 3.27312 1.45833C3.27312 1.94075 2.90605 2.33333 2.45498 2.33333C2.00391 2.33333 1.63683 1.94075 1.63683 1.45833C1.63683 0.975917 2.00391 0.583333 2.45498 0.583333ZM4.90941 7.29167C4.90941 7.45267 4.78724 7.58333 4.6367 7.58333C4.48616 7.58333 4.36398 7.45267 4.36398 7.29167V5.54167C4.36398 4.73725 3.75201 4.08333 3.00041 4.08333H1.90955C1.15795 4.08333 0.545975 4.73725 0.545975 5.54167V7.875C0.545975 8.67942 1.15795 9.33333 1.90955 9.33333H3.00041C3.1564 9.33333 3.30912 9.30533 3.45475 9.24992C3.53766 9.21958 3.63093 9.23242 3.70292 9.28667C3.77546 9.3415 3.81801 9.43017 3.81801 9.52467V13.7077C3.81801 13.8687 3.69583 13.9994 3.54529 13.9994C3.39475 13.9994 3.27258 13.8687 3.27258 13.7077V9.89567C3.18258 9.90908 3.0915 9.91608 2.99986 9.91608H1.909C1.81628 9.91608 1.72519 9.90908 1.63629 9.89508V13.7077C1.63629 13.8687 1.51411 13.9994 1.36357 13.9994C1.21304 13.9994 1.09086 13.8687 1.09086 13.7077V9.71892C0.446707 9.3905 0 8.687 0 7.87442V5.54108C0 4.41525 0.856325 3.49942 1.909 3.49942H2.99986C4.05254 3.49942 4.90887 4.41525 4.90887 5.54108V7.29108L4.90941 7.29167ZM8.45471 6.41667C6.49989 6.41667 4.90941 8.11767 4.90941 10.2083C4.90941 12.299 6.49989 14 8.45471 14C10.4095 14 12 12.299 12 10.2083C12 8.11767 10.4095 6.41667 8.45471 6.41667ZM8.45471 13.4167C6.80042 13.4167 5.45484 11.977 5.45484 10.2083C5.45484 8.43967 6.80042 7 8.45471 7C10.109 7 11.4546 8.43967 11.4546 10.2083C11.4546 11.977 10.109 13.4167 8.45471 13.4167ZM9.00014 12.25C9.00014 12.572 8.75578 12.8333 8.45471 12.8333C8.15363 12.8333 7.90928 12.572 7.90928 12.25C7.90928 11.928 8.15363 11.6667 8.45471 11.6667C8.75578 11.6667 9.00014 11.928 9.00014 12.25ZM9.79701 8.77975C9.89846 9.39925 9.62356 10.0182 9.11249 10.3197C8.92596 10.4294 8.79233 10.5607 8.74542 10.843C8.72197 10.9842 8.60688 11.0833 8.47707 11.0833C8.46125 11.0833 8.44489 11.0816 8.42907 11.0787C8.28071 11.0507 8.18199 10.899 8.20817 10.7403C8.29981 10.1903 8.61724 9.94525 8.84851 9.80875C9.15995 9.625 9.32139 9.26042 9.25922 8.88008C9.20195 8.5295 8.9325 8.24192 8.60525 8.18067C8.35653 8.134 8.11709 8.20108 7.92891 8.37083C7.74292 8.53708 7.63602 8.78208 7.63602 9.04108C7.63602 9.20208 7.51384 9.33275 7.3633 9.33275C7.21276 9.33275 7.09059 9.20208 7.09059 9.04108C7.09059 8.60883 7.2684 8.20167 7.5782 7.92342C7.88746 7.64575 8.29653 7.52967 8.6996 7.60608C9.24831 7.70875 9.69992 8.19175 9.79701 8.77975Z" fill="#F9FAFF"/>
</svg>
