<svg width="11" height="15" viewBox="0 0 11 15" fill="none" xmlns="http://www.w3.org/2000/svg">
<path d="M5.50467 7.35606C7.79313 7.34233 8.97463 6.15952 9.01713 3.82791C8.9779 1.57475 7.73101 0.325908 5.50074 0.311523C3.24367 0.325254 1.98828 1.66237 1.98828 3.82791C1.98828 6.09152 3.24432 7.34233 5.50467 7.35606ZM5.50074 0.96537C7.36747 0.977793 8.33059 1.94483 8.36328 3.82791C8.32732 5.77768 7.41782 6.6911 5.50467 6.70222C3.5889 6.6911 2.6794 5.77964 2.64213 3.83379C2.67809 1.91541 3.6144 0.977139 5.50074 0.96537Z" fill="#F9FAFF"/>
<path d="M5.49827 9.00488C2.05969 9.02646 0.209308 10.8795 0.146539 14.3645C0.14327 14.5449 0.287116 14.694 0.467577 14.6973H0.473462C0.651308 14.6973 0.797116 14.5547 0.800385 14.3762C0.856616 11.2214 2.39446 9.67769 5.49762 9.65873C8.5635 9.67834 10.1458 11.2659 10.1994 14.3762C10.2027 14.5567 10.3662 14.7064 10.5322 14.6973C10.7127 14.694 10.8565 14.5456 10.8533 14.3645C10.7938 10.9305 8.89369 9.02646 5.49827 9.00488Z" fill="#F9FAFF"/>
</svg>
